
The Rachel Maddow Show - mkv
March 7 and 8th  - 2013 - 92 minutes in length
Both days are joined into one file
Plus about 5 minutes of the Ed show when they discuss Bill OReillys outburst that was in the news the other day.
Eds bit starts the video
March 7 starts at 5:27
March 8 starts at 48:51


Video
ID                               : 1
Format                           : AVC
Format/Info                      : Advanced Video Codec
Format profile                   : High@L2.1
Format settings, CABAC           : Yes
Format settings, ReFrames        : 4 frames
Codec ID                         : V_MPEG4/ISO/AVC
Duration                         : 1h 32mn
Bit rate                         : 450 Kbps
Width                            : 512 pixels
Height                           : 288 pixels
Display aspect ratio             : 16:9
Frame rate                       : 29.970 fps
Color space                      : YUV
Chroma subsampling               : 4:2:0
Bit depth                        : 8 bits
Scan type                        : Progressive
Bits/(Pixel*Frame)               : 0.102
Stream size                      : 285 MiB (80%)
Writing library                  : x264 core 120


Audio
ID                               : 2
Format                           : Vorbis
Format settings, Floor           : 1
Codec ID                         : A_VORBIS
Duration                         : 1h 32mn
Bit rate mode                    : Variable
Bit rate                         : 96.0 Kbps
Channel(s)                       : 2 channels
Sampling rate                    : 48.0 KHz
Compression mode                 : Lossy
Stream size                      : 63.4 MiB (18%)